<?xml version="1.0" standalone="no"?>
<!DOCTYPE svg PUBLIC "-//W3C//DTD SVG 20010904//EN"
 "http://www.w3.org/TR/2001/REC-SVG-20010904/DTD/svg10.dtd">
<svg version="1.0" xmlns="http://www.w3.org/2000/svg"
 width="512.000000pt" height="512.000000pt" viewBox="0 0 512.000000 512.000000"
 preserveAspectRatio="xMidYMid meet">

<g transform="translate(0.000000,512.000000) scale(0.100000,-0.100000)"
 stroke="none">
<path d="M29 5091 l-29 -29 0 -164 c0 -139 3 -166 18 -185 12 -15 239 -114
717 -312 1131 -467 1307 -540 1311 -544 2 -2 -1 -19 -6 -38 -22 -83 -40 -258
-40 -394 0 -162 18 -311 55 -451 l24 -92 -43 -128 c-86 -254 -156 -549 -187
-782 l-12 -92 -377 0 c-418 0 -449 -4 -517 -63 -34 -30 -887 -1031 -926 -1087
-15 -22 -17 -58 -17 -348 l0 -324 29 -29 29 -29 1991 0 1990 0 28 24 28 24 3
315 c2 241 0 322 -10 346 -16 37 -900 1084 -945 1118 -62 48 -103 53 -420 53
-161 0 -293 4 -293 8 0 26 222 374 257 404 11 9 65 7 230 -9 l216 -21 37 -41
c70 -76 84 -79 430 -83 291 -3 307 -2 350 18 38 17 59 20 135 16 242 -12 490
136 698 414 79 106 194 331 237 464 160 501 101 987 -155 1278 -26 28 -60 79
-77 112 -17 35 -47 74 -72 95 -24 20 -139 78 -267 135 l-224 101 -79 -5 -79
-4 -317 158 c-369 184 -407 196 -579 187 -223 -11 -435 -119 -636 -322 -73
-74 -189 -221 -224 -282 -4 -9 -228 79 -768 302 l-761 315 -362 0 -362 0 -29
-29z m1432 -436 c392 -162 724 -299 736 -305 l22 -9 -33 -73 c-18 -40 -46
-110 -62 -156 -25 -72 -32 -82 -49 -78 -11 3 -443 181 -960 395 l-940 389 -3
66 -3 66 289 0 288 0 715 -295z m1872 270 c119 -31 228 -105 304 -208 365
-492 219 -1462 -296 -1978 -153 -152 -310 -241 -467 -265 l-49 -7 55 59 c76
82 174 169 245 217 92 62 264 240 329 339 138 212 234 489 266 763 48 423 -87
789 -337 912 -70 35 -84 38 -177 41 -80 3 -114 -1 -163 -16 -326 -103 -614
-507 -717 -1004 -23 -110 -39 -304 -32 -384 l7 -71 -55 -93 -54 -93 -9 39 c-4
21 -8 134 -8 249 1 227 9 293 65 497 85 309 236 567 453 775 207 199 438 281
640 228z m736 -355 l199 -99 9 -68 c27 -223 -22 -556 -132 -892 -58 -179 -167
-439 -241 -580 -100 -190 -302 -473 -369 -517 -22 -14 -39 -15 -166 -3 -135
12 -141 14 -118 28 369 244 642 709 735 1256 25 143 25 455 0 590 -21 115 -56
233 -97 323 -15 34 -26 62 -23 62 2 0 94 -45 203 -100z m-762 35 c219 -109
306 -499 209 -935 -25 -108 -81 -270 -95 -270 -5 0 -46 13 -92 30 -124 43
-281 85 -394 105 -130 23 -330 24 -400 1 -27 -8 -54 -16 -59 -16 -14 0 0 143
24 255 56 258 179 500 336 664 127 134 232 190 355 191 50 0 77 -6 116 -25z
m1290 -192 c76 -50 101 -269 62 -538 -62 -426 -231 -867 -469 -1223 -210 -314
-277 -365 -447 -347 l-65 7 34 36 c19 21 57 66 85 102 411 529 712 1441 650
1972 l-7 67 66 -30 c37 -17 78 -38 91 -46z m327 -655 c37 -245 3 -488 -103
-753 -97 -241 -265 -460 -440 -573 -62 -40 -165 -86 -182 -80 -5 2 30 56 76
121 46 66 109 160 139 210 212 359 376 829 416 1197 18 166 19 167 51 69 15
-47 35 -133 43 -191z m-1982 -399 c104 -21 310 -78 371 -104 l38 -16 -22 -37
c-71 -117 -178 -228 -334 -343 -124 -92 -246 -215 -382 -383 -147 -183 -244
-333 -345 -533 -120 -238 -182 -438 -207 -661 -5 -46 -11 -84 -12 -86 -2 -2
-23 -1 -46 2 l-42 4 4 46 c3 26 7 115 10 198 17 523 134 1080 308 1482 76 172
220 407 267 432 61 33 226 32 392 -1z m-1128 -1731 c-7 -107 -8 -108 -46 -108
-18 0 -71 -7 -118 -15 -245 -43 -370 -119 -370 -225 0 -158 291 -253 775 -252
292 0 521 37 648 105 67 35 93 64 107 117 34 126 -125 226 -415 261 -49 6 -95
13 -102 15 -9 2 -6 22 11 72 43 125 -2 112 375 112 324 0 328 0 359 -22 18
-13 201 -223 407 -468 l376 -445 -1767 -3 c-972 -1 -1769 0 -1772 2 -7 8 763
910 788 923 19 10 116 13 388 13 l362 0 -6 -82z m552 -282 c97 -14 244 -54
244 -66 0 -17 -199 -64 -324 -76 l-68 -7 5 29 c3 16 9 53 12 82 8 60 0 58 131
38z m-566 -20 c0 -13 -3 -44 -6 -70 -6 -41 -9 -46 -33 -46 -62 1 -271 55 -271
70 0 17 201 68 273 69 32 1 37 -2 37 -23z m2125 -941 l0 -210 -1877 -3 -1878
-2 0 215 0 215 1878 -2 1877 -3 0 -210z"/>
<path d="M1053 3558 c-29 -32 -34 -53 -21 -88 15 -43 59 -65 104 -50 40 13 54
35 54 83 0 69 -91 105 -137 55z"/>
<path d="M802 3135 c-77 -65 -3 -175 93 -139 19 8 45 55 45 83 0 29 -40 70
-76 77 -24 4 -37 0 -62 -21z"/>
<path d="M1272 2883 c-97 -34 -169 -149 -160 -257 19 -217 279 -314 432 -160
194 193 -12 509 -272 417z m146 -173 c60 -56 22 -150 -59 -150 -26 0 -79 53
-79 79 0 74 86 119 138 71z"/>
</g>
</svg>
