<?xml version="1.0" standalone="no"?>
<!DOCTYPE svg PUBLIC "-//W3C//DTD SVG 20010904//EN"
 "http://www.w3.org/TR/2001/REC-SVG-20010904/DTD/svg10.dtd">
<svg version="1.0" xmlns="http://www.w3.org/2000/svg"
 width="512.000000pt" height="512.000000pt" viewBox="0 0 512.000000 512.000000"
 preserveAspectRatio="xMidYMid meet">

<g transform="translate(0.000000,512.000000) scale(0.100000,-0.100000)"
 stroke="none">
<path d="M3259 4866 c-78 -22 -165 -75 -251 -155 -45 -42 -599 -560 -1229
-1151 -631 -591 -1174 -1098 -1206 -1126 -194 -170 -233 -482 -88 -701 81
-123 209 -209 355 -239 128 -27 279 0 386 68 38 24 1982 1836 2532 2361 122
116 172 220 180 376 5 113 -8 180 -55 280 -65 136 -202 246 -358 286 -70 18
-202 18 -266 1z m315 -124 c126 -59 203 -144 246 -273 18 -53 21 -81 18 -159
-3 -80 -8 -105 -34 -160 -17 -36 -46 -83 -64 -104 l-33 -37 -81 79 c-176 172
-389 273 -680 321 l-99 16 142 133 c217 202 261 225 422 219 82 -3 106 -8 163
-35z m-682 -427 c198 -30 355 -83 502 -169 73 -43 226 -179 226 -201 0 -10
-226 -231 -342 -334 l-27 -23 -66 66 c-154 154 -385 263 -640 301 -193 30
-195 5 16 202 136 127 191 173 209 173 14 0 69 -7 122 -15z m-437 -446 c179
-22 365 -82 499 -161 74 -44 219 -174 214 -193 -2 -6 -97 -100 -212 -208
l-210 -197 -60 58 c-179 170 -409 253 -752 270 l-131 7 231 217 231 217 50 1
c28 0 91 -5 140 -11z m-383 -544 c191 -25 330 -72 448 -150 62 -42 159 -131
149 -138 -2 -2 -117 -110 -256 -240 -138 -130 -254 -237 -257 -237 -3 0 -24
20 -46 44 -160 173 -452 275 -829 289 l-63 2 226 213 c125 118 239 218 254
222 45 14 254 11 374 -5z m-502 -564 c119 -24 207 -53 290 -97 77 -40 169
-111 198 -151 l21 -29 -292 -275 -292 -274 -6 110 c-4 61 -12 128 -19 150 -66
219 -288 384 -520 385 l-65 1 105 99 c58 55 114 101 125 104 48 11 364 -4 455
-23z m-446 -319 c171 -80 266 -227 266 -410 0 -329 -341 -546 -637 -405 -30
13 -81 50 -113 80 -225 208 -174 585 98 722 85 43 123 51 228 47 78 -3 102 -8
158 -34z"/>
<path d="M4064 3625 c-75 -16 -143 -50 -214 -106 -30 -23 -277 -252 -550 -508
-1014 -954 -1778 -1670 -1891 -1774 -175 -160 -219 -243 -227 -422 -7 -172 41
-298 158 -415 168 -168 416 -207 635 -100 40 20 101 68 185 147 623 584 2086
1957 2245 2106 217 202 257 252 296 377 30 97 29 235 -5 330 -65 188 -219 325
-411 365 -84 18 -140 18 -221 0z m198 -96 c182 -38 331 -196 356 -376 17 -125
-13 -239 -88 -340 l-39 -51 -83 82 c-183 181 -404 279 -741 331 l-39 6 108
102 c184 175 241 216 336 241 65 18 121 19 190 5z m-582 -460 c270 -35 531
-156 675 -311 l58 -62 -54 -50 c-30 -27 -115 -106 -189 -176 l-135 -128 -80
77 c-171 165 -411 270 -693 303 -56 7 -101 15 -100 18 2 4 85 84 185 178 170
159 185 171 215 167 18 -3 71 -9 118 -16z m-378 -455 c177 -29 361 -97 475
-175 60 -41 173 -148 173 -164 0 -7 -95 -101 -210 -210 l-211 -197 -57 54
c-103 98 -226 167 -372 211 -115 35 -188 47 -364 61 l-148 11 233 218 233 219
80 -7 c45 -3 120 -13 168 -21z m-527 -525 c288 -25 517 -115 640 -250 l37 -41
-33 -34 c-19 -18 -135 -128 -259 -243 l-225 -211 -24 30 c-37 47 -139 124
-222 169 -141 76 -303 116 -540 135 l-147 11 230 215 c227 213 230 215 281
221 86 10 136 9 262 -2z m-495 -560 c235 -33 444 -129 553 -255 l28 -32 -243
-229 c-134 -125 -266 -250 -295 -276 l-52 -49 0 100 c0 81 -4 114 -25 172 -78
226 -292 379 -530 380 l-49 0 103 98 c100 94 105 97 159 103 69 8 251 2 351
-12z m-468 -300 c86 -18 171 -65 233 -130 215 -226 150 -581 -132 -716 -196
-94 -439 -27 -559 154 -57 86 -76 159 -72 274 3 87 7 103 41 172 91 185 294
287 489 246z"/>
</g>
</svg>
