<?xml version="1.0" standalone="no"?>
<!DOCTYPE svg PUBLIC "-//W3C//DTD SVG 20010904//EN"
 "http://www.w3.org/TR/2001/REC-SVG-20010904/DTD/svg10.dtd">
<svg version="1.0" xmlns="http://www.w3.org/2000/svg"
 width="512.000000pt" height="512.000000pt" viewBox="0 0 512.000000 512.000000"
 preserveAspectRatio="xMidYMid meet">

<g transform="translate(0.000000,512.000000) scale(0.100000,-0.100000)"
 stroke="none">
<path d="M2672 4686 c-15 -24 -130 -224 -257 -444 l-230 -401 -595 -1 -596 0
-497 -861 -497 -861 491 -852 c270 -468 496 -857 502 -864 7 -9 215 -12 1000
-10 l991 3 440 762 441 763 223 2 224 3 404 699 c389 675 403 700 389 725 -7
14 -189 330 -404 701 l-390 675 -806 3 -805 2 -28 -44z m1775 -796 c168 -289
309 -535 315 -546 9 -19 -33 -96 -308 -573 l-319 -552 -108 3 -109 3 -110 188
c-60 104 -108 190 -106 191 2 1 35 14 73 29 162 62 311 200 389 358 62 127 80
200 80 334 0 196 -66 362 -201 505 -140 149 -299 224 -503 237 -188 12 -409
-68 -546 -198 l-30 -29 -216 2 -216 3 166 288 166 287 640 -2 640 -3 303 -525z
m-855 -131 c179 -38 321 -190 349 -374 35 -222 -121 -445 -346 -495 -38 -8
-51 -8 -60 2 -16 18 -395 676 -395 686 0 5 23 31 51 59 110 109 254 153 401
122z m-370 -929 c231 -400 405 -711 402 -720 -3 -8 -186 -329 -407 -712 l-402
-698 -825 0 -825 0 -405 701 c-223 386 -407 706 -408 710 -2 5 180 329 405
719 l408 709 824 -2 825 -2 408 -705z"/>
<path d="M1895 3010 c-212 -23 -409 -121 -556 -277 -468 -497 -237 -1303 426
-1485 115 -31 335 -31 450 0 493 135 781 648 634 1128 -125 409 -534 680 -954
634z m230 -312 c161 -35 320 -159 398 -313 69 -137 81 -304 34 -450 -98 -298
-411 -472 -711 -395 -109 28 -190 74 -272 155 -193 191 -235 447 -113 694 120
243 389 368 664 309z"/>
</g>
</svg>
