<?xml version="1.0" standalone="no"?>
<!DOCTYPE svg PUBLIC "-//W3C//DTD SVG 20010904//EN"
 "http://www.w3.org/TR/2001/REC-SVG-20010904/DTD/svg10.dtd">
<svg version="1.0" xmlns="http://www.w3.org/2000/svg"
 width="512.000000pt" height="512.000000pt" viewBox="0 0 512.000000 512.000000"
 preserveAspectRatio="xMidYMid meet">

<g transform="translate(0.000000,512.000000) scale(0.100000,-0.100000)"
 stroke="none">
<path d="M499 5103 c-50 -31 -53 -46 -57 -240 l-4 -181 -181 -4 c-196 -4 -210
-7 -241 -59 -20 -34 -20 -71 0 -110 26 -50 63 -59 254 -59 l170 0 0 -555 0
-555 -177 0 c-157 0 -182 -2 -209 -19 -63 -38 -70 -128 -13 -175 30 -26 32
-26 215 -26 l184 0 0 -560 0 -560 -184 0 c-183 0 -185 0 -215 -26 -57 -47 -50
-137 13 -175 27 -17 52 -19 209 -19 l177 0 0 -555 0 -555 -170 0 c-191 0 -228
-9 -254 -59 -20 -39 -20 -76 0 -110 31 -52 45 -55 241 -59 l181 -4 4 -181 c4
-196 7 -210 59 -241 34 -20 71 -20 110 0 50 26 59 63 59 254 l0 170 555 0 555
0 0 -177 c0 -157 2 -182 19 -209 38 -63 128 -70 175 -13 26 30 26 32 26 215
l0 184 560 0 560 0 0 -184 c0 -183 0 -185 26 -215 47 -57 137 -50 175 13 17
27 19 52 19 209 l0 177 555 0 555 0 0 -170 c0 -191 9 -228 59 -254 39 -20 76
-20 110 0 52 31 55 45 59 241 l4 181 181 4 c196 4 210 7 241 59 20 34 20 71 0
110 -26 50 -63 59 -254 59 l-170 0 0 555 0 555 178 0 c156 0 181 2 208 19 63
38 70 128 13 175 -30 26 -32 26 -215 26 l-184 0 0 560 0 560 184 0 c183 0 185
0 215 26 57 47 50 137 -13 175 -27 17 -52 19 -208 19 l-178 0 0 555 0 555 170
0 c191 0 228 9 254 59 20 39 20 76 0 110 -31 52 -45 55 -241 59 l-181 4 -4
181 c-4 196 -7 210 -59 241 -34 20 -71 20 -110 0 -50 -26 -59 -63 -59 -254 l0
-170 -555 0 -555 0 0 178 c0 156 -2 181 -19 208 -38 63 -128 70 -175 13 -26
-30 -26 -32 -26 -215 l0 -184 -560 0 -560 0 0 184 c0 183 0 185 -26 215 -47
57 -137 50 -175 -13 -17 -27 -19 -52 -19 -208 l0 -178 -555 0 -555 0 0 170 c0
125 -4 180 -14 205 -25 58 -102 82 -157 48z m1281 -1208 l0 -555 -555 0 -555
0 0 555 0 555 555 0 555 0 0 -555z m1340 0 l0 -555 -560 0 -560 0 0 555 0 555
560 0 560 0 0 -555z m1330 0 l0 -555 -555 0 -555 0 0 555 0 555 555 0 555 0 0
-555z m-2670 -1335 l0 -560 -555 0 -555 0 0 560 0 560 555 0 555 0 0 -560z
m1335 0 l0 -555 -555 0 -555 0 -3 545 c-1 300 0 551 3 558 3 10 120 12 557 10
l553 -3 0 -555z m1335 0 l0 -560 -555 0 -555 0 0 560 0 560 555 0 555 0 0
-560z m-2670 -1335 l0 -555 -555 0 -555 0 0 555 0 555 555 0 555 0 0 -555z
m1340 0 l0 -555 -560 0 -560 0 0 555 0 555 560 0 560 0 0 -555z m1330 0 l0
-555 -555 0 -555 0 0 555 0 555 555 0 555 0 0 -555z"/>
</g>
</svg>
