<?xml version="1.0" standalone="no"?>
<!DOCTYPE svg PUBLIC "-//W3C//DTD SVG 20010904//EN"
 "http://www.w3.org/TR/2001/REC-SVG-20010904/DTD/svg10.dtd">
<svg version="1.0" xmlns="http://www.w3.org/2000/svg"
 width="512.000000pt" height="512.000000pt" viewBox="0 0 512.000000 512.000000"
 preserveAspectRatio="xMidYMid meet">

<g transform="translate(0.000000,512.000000) scale(0.100000,-0.100000)"
 stroke="none">
<path d="M1145 4695 l-25 -24 0 -376 0 -375 -295 0 -296 0 -24 -25 -25 -24 0
-513 0 -513 1223 -1222 1222 -1223 513 0 513 0 24 25 25 24 0 376 0 375 295 0
296 0 24 25 25 24 0 513 0 513 -1223 1222 -1222 1223 -513 0 -513 0 -24 -25z
m2100 -1255 l1120 -1120 -365 0 -365 0 -1120 1120 -1120 1120 365 0 365 0
1120 -1120z m275 -1360 l0 -125 -983 983 -982 982 -138 0 -137 0 0 262 0 263
1120 -1120 1120 -1120 0 -125z m-915 560 l1120 -1120 -365 0 -365 0 -1120
1120 -1120 1120 365 0 365 0 1120 -1120z m275 -1600 l0 -365 -1120 1120 -1120
1120 0 365 0 365 1120 -1120 1120 -1120 0 -365z m1600 720 l0 -400 -240 0
-240 0 0 57 0 57 -160 161 -160 161 0 182 0 182 400 0 400 0 0 -400z m-640
-800 l0 -400 -400 0 -400 0 0 400 0 400 400 0 400 0 0 -400z"/>
</g>
</svg>
