<?xml version="1.0" standalone="no"?>
<!DOCTYPE svg PUBLIC "-//W3C//DTD SVG 20010904//EN"
 "http://www.w3.org/TR/2001/REC-SVG-20010904/DTD/svg10.dtd">
<svg version="1.0" xmlns="http://www.w3.org/2000/svg"
 width="512.000000pt" height="512.000000pt" viewBox="0 0 512.000000 512.000000"
 preserveAspectRatio="xMidYMid meet">

<g transform="translate(0.000000,512.000000) scale(0.100000,-0.100000)"
 stroke="none">
<path d="M1883 4628 c-27 -13 -47 -59 -38 -90 4 -13 518 -535 1143 -1160
l1137 -1138 -685 0 -685 0 -1150 1150 c-632 632 -1162 1155 -1177 1161 -61 25
-124 -38 -99 -99 6 -15 529 -545 1161 -1177 l1150 -1150 0 -45 0 -45 -1097
1097 c-604 603 -1108 1099 -1121 1103 -59 17 -116 -46 -93 -103 6 -15 539
-555 1184 -1200 l1172 -1172 520 0 520 0 400 -400 400 -400 -675 0 -675 0 -80
80 -80 80 257 0 c272 0 297 4 317 47 15 32 15 354 0 386 -6 14 -22 30 -36 36
-17 8 -255 11 -811 11 l-787 0 -750 750 c-412 412 -762 755 -777 761 -61 25
-124 -38 -99 -99 6 -15 349 -365 761 -777 l750 -750 0 -45 0 -45 -697 697
c-384 383 -708 699 -721 703 -59 17 -116 -46 -93 -103 7 -15 359 -375 784
-800 l772 -772 280 0 280 0 320 -320 321 -320 821 0 c581 0 829 3 846 11 41
19 47 48 47 242 l0 181 -422 423 -423 423 187 0 c116 0 196 4 211 11 41 19 47
48 47 242 l0 182 -1207 1208 c-665 665 -1220 1215 -1235 1223 -31 16 -45 17
-75 2z m2357 -2628 l0 -80 -720 0 -720 0 0 80 0 80 720 0 720 0 0 -80z m-800
-640 l0 -80 -720 0 -720 0 0 80 0 80 720 0 720 0 0 -80z m-527 -368 l128 -128
-3 -52 -3 -52 -180 180 -180 180 55 0 55 0 128 -128z m1727 -272 l0 -80 -720
0 -720 0 0 80 0 80 720 0 720 0 0 -80z"/>
</g>
</svg>
