<?xml version="1.0" standalone="no"?>
<!DOCTYPE svg PUBLIC "-//W3C//DTD SVG 20010904//EN"
 "http://www.w3.org/TR/2001/REC-SVG-20010904/DTD/svg10.dtd">
<svg version="1.0" xmlns="http://www.w3.org/2000/svg"
 width="512.000000pt" height="512.000000pt" viewBox="0 0 512.000000 512.000000"
 preserveAspectRatio="xMidYMid meet">

<g transform="translate(0.000000,512.000000) scale(0.100000,-0.100000)"
 stroke="none">
<path d="M960 5107 c-19 -6 -55 -32 -80 -57 -93 -93 -93 -217 0 -310 59 -59
98 -70 254 -70 l126 0 0 -197 -1 -198 -39 -18 c-68 -32 -119 -117 -120 -203 0
-24 10 -61 26 -92 l26 -52 -26 -52 c-34 -68 -34 -128 0 -196 l26 -52 -26 -52
c-17 -33 -26 -68 -26 -98 0 -30 9 -65 26 -98 l26 -52 -26 -52 c-17 -33 -26
-68 -26 -98 0 -30 9 -65 26 -98 l26 -52 -26 -52 c-34 -68 -34 -128 0 -196 l26
-52 -26 -52 c-34 -68 -34 -128 0 -196 l26 -52 -28 -55 c-23 -47 -26 -64 -21
-110 l6 -55 -297 0 c-337 0 -399 -7 -457 -49 -53 -38 -95 -118 -95 -181 0 -63
42 -143 95 -181 58 -42 120 -49 457 -49 l297 0 -6 -55 c-5 -46 -2 -63 21 -110
l28 -55 -26 -52 c-34 -68 -34 -128 0 -196 l26 -52 -26 -52 c-16 -31 -26 -68
-26 -92 1 -86 52 -171 120 -203 l39 -18 1 -197 0 -198 -126 0 c-156 0 -195
-11 -254 -70 -93 -93 -93 -217 0 -310 27 -27 61 -50 86 -58 60 -18 3678 -18
3738 0 25 8 59 31 86 58 93 93 93 217 0 310 -59 59 -98 70 -254 70 l-126 0 0
198 1 197 39 18 c68 32 119 117 120 203 0 24 -10 61 -26 92 l-26 52 26 52 c17
33 26 68 26 98 0 30 -9 65 -26 98 l-26 52 26 52 c17 33 26 68 26 98 0 30 -9
65 -26 98 l-26 52 26 52 c34 68 34 128 0 196 l-26 52 26 52 c34 68 34 128 0
196 l-26 52 26 52 c34 68 34 128 0 196 l-26 52 26 52 c17 33 26 68 26 98 0 30
-9 65 -26 98 l-26 52 26 52 c34 68 34 128 0 196 l-26 52 26 52 c17 33 26 68
26 98 0 30 -9 65 -26 98 l-26 52 26 52 c17 33 26 68 26 98 0 30 -9 65 -26 98
l-26 52 26 52 c16 31 26 68 26 92 -1 86 -52 171 -120 203 -34 15 -40 23 -40
49 0 76 -85 114 -129 58 -12 -15 -21 -37 -21 -50 l0 -24 -1154 -2 c-1119 -3
-1155 -4 -1175 -22 -29 -26 -29 -86 0 -112 20 -18 59 -19 1243 -24 671 -3
1222 -6 1222 -8 27 -49 27 -88 -2 -117 -14 -13 -198 -15 -1559 -15 -1672 0
-1563 -3 -1580 51 -9 29 13 78 39 84 11 2 105 6 207 7 168 3 189 5 208 22 29
26 29 86 0 112 -18 16 -40 19 -160 22 l-139 4 0 189 0 189 1425 0 1425 0 0
-24 c0 -39 36 -76 75 -76 39 0 75 37 75 76 0 24 0 24 126 24 156 0 195 11 254
70 93 93 93 217 0 310 -27 27 -61 50 -86 58 -57 17 -3691 16 -3744 -1z m3725
-162 c32 -31 32 -69 0 -100 l-24 -25 -1826 0 -1826 0 -24 25 c-14 13 -25 36
-25 50 0 14 11 37 25 50 l24 25 1826 0 1826 0 24 -25z m-299 -1123 c36 -24 40
-84 8 -116 -14 -14 -169 -16 -1557 -16 -848 0 -1547 4 -1553 8 -36 24 -40 84
-8 116 14 14 169 16 1557 16 848 0 1547 -4 1553 -8z m0 -300 c36 -24 40 -84 8
-116 -14 -14 -169 -16 -1557 -16 -848 0 -1547 4 -1553 8 -36 24 -40 84 -8 116
14 14 169 16 1557 16 848 0 1547 -4 1553 -8z m0 -300 c36 -24 40 -84 8 -116
-14 -14 -169 -16 -1557 -16 -848 0 -1547 4 -1553 8 -36 24 -40 84 -8 116 14
14 169 16 1557 16 848 0 1547 -4 1553 -8z m0 -300 c36 -24 40 -84 8 -116 -14
-14 -169 -16 -1557 -16 -848 0 -1547 4 -1553 8 -36 24 -40 84 -8 116 14 14
169 16 1557 16 848 0 1547 -4 1553 -8z m0 -300 c36 -24 40 -84 8 -116 -14 -14
-169 -16 -1557 -16 -848 0 -1547 4 -1553 8 -36 24 -40 84 -8 116 14 14 169 16
1557 16 848 0 1547 -4 1553 -8z m0 -300 c36 -24 40 -84 8 -116 -14 -14 -169
-16 -1557 -16 -848 0 -1547 4 -1553 8 -36 24 -40 84 -8 116 14 14 169 16 1557
16 848 0 1547 -4 1553 -8z m0 -300 c36 -24 40 -84 8 -116 -14 -14 -208 -16
-1977 -16 -1079 0 -1967 4 -1973 8 -36 24 -40 84 -8 116 14 14 208 16 1977 16
1079 0 1967 -4 1973 -8z m0 -300 c36 -24 40 -84 8 -116 -14 -14 -169 -16
-1557 -16 -848 0 -1547 4 -1553 8 -36 24 -40 84 -8 116 14 14 169 16 1557 16
848 0 1547 -4 1553 -8z m0 -300 c36 -24 40 -84 8 -116 -14 -14 -169 -16 -1557
-16 -848 0 -1547 4 -1553 8 -36 24 -40 84 -8 116 14 14 169 16 1557 16 848 0
1547 -4 1553 -8z m0 -300 c20 -13 36 -54 30 -77 -14 -54 -19 -55 -269 -56
-152 0 -244 -4 -267 -12 -67 -23 -67 -111 0 -134 22 -7 101 -12 208 -12 l172
-1 0 -190 0 -190 -1425 0 -1425 0 0 190 0 190 1099 2 c1065 3 1100 4 1120 22
29 26 29 86 0 112 -20 18 -58 19 -1188 24 -641 3 -1167 6 -1167 8 -27 49 -27
88 2 117 14 13 197 15 1557 15 848 0 1547 -4 1553 -8z m299 -847 c32 -31 32
-69 0 -100 l-24 -25 -1826 0 -1826 0 -24 25 c-14 13 -25 36 -25 50 0 14 11 37
25 50 l24 25 1826 0 1826 0 24 -25z"/>
</g>
</svg>
