<?xml version="1.0" standalone="no"?>
<!DOCTYPE svg PUBLIC "-//W3C//DTD SVG 20010904//EN"
 "http://www.w3.org/TR/2001/REC-SVG-20010904/DTD/svg10.dtd">
<svg version="1.0" xmlns="http://www.w3.org/2000/svg"
 width="512.000000pt" height="512.000000pt" viewBox="0 0 512.000000 512.000000"
 preserveAspectRatio="xMidYMid meet">

<g transform="translate(0.000000,512.000000) scale(0.100000,-0.100000)"
 stroke="none">
<path d="M452 4718 c-13 -17 -22 -465 -10 -498 6 -14 196 -194 423 -400 l413
-375 1 -357 1 -358 -409 0 c-315 0 -411 -3 -419 -12 -13 -18 -22 -515 -10
-548 6 -14 398 -391 873 -838 670 -630 868 -823 885 -857 13 -27 36 -53 58
-67 l37 -23 1140 0 1140 0 35 22 c69 43 75 64 75 278 0 179 -1 192 -22 226
-13 19 -40 44 -60 55 -21 10 -184 164 -363 341 -333 331 -353 346 -388 311
-35 -35 -18 -56 275 -350 l288 -288 -338 0 -337 0 0 749 0 750 418 3 c409 3
418 3 452 25 69 43 75 64 75 278 0 172 -2 193 -20 223 -20 33 -71 72 -94 72
-6 0 -450 371 -987 825 l-975 825 -1073 0 c-847 0 -1076 -3 -1084 -12z m3028
-855 c498 -421 907 -770 908 -775 2 -4 -453 -8 -1012 -8 l-1016 0 -183 163
c-100 90 -477 425 -837 746 -360 321 -668 596 -685 612 l-30 29 975 0 975 -1
905 -766z m-2083 -58 l840 -750 -24 -37 c-21 -31 -26 -53 -31 -148 l-7 -112
-817 747 -818 748 0 154 c0 85 4 153 8 151 5 -1 387 -340 849 -753z m803
-1230 c13 -27 36 -53 58 -67 37 -23 39 -23 455 -26 l417 -3 0 -711 0 -710 -67
63 c-38 34 -429 404 -870 822 l-803 759 0 319 0 319 394 -360 c303 -277 400
-372 416 -405z m2368 393 c8 -8 12 -64 12 -184 0 -147 -2 -173 -17 -185 -13
-11 -104 -15 -462 -19 l-445 -5 -13 -25 c-10 -20 -12 -194 -10 -828 l2 -804
24 -19 c22 -18 45 -19 461 -19 360 0 440 -2 449 -14 8 -9 11 -68 9 -187 l-3
-173 -25 -13 c-37 -19 -2193 -19 -2230 0 l-25 13 -3 173 c-2 119 1 178 9 187
9 12 89 14 449 14 416 0 439 1 461 19 l24 19 2 804 c2 634 0 808 -10 828 l-13
25 -445 5 c-358 4 -449 8 -462 19 -15 12 -17 38 -17 185 0 120 4 176 12 184
17 17 2249 17 2266 0z m-2383 -1154 c473 -448 862 -819 863 -824 2 -6 -127
-10 -342 -10 l-346 0 -842 796 c-464 438 -856 810 -873 825 l-30 29 355 -1
355 0 860 -815z m-732 -113 l786 -743 -26 -39 c-21 -32 -26 -53 -31 -148 l-7
-111 -817 771 -818 771 0 180 0 180 63 -59 c35 -32 418 -393 850 -802z"/>
</g>
</svg>
