<?xml version="1.0" standalone="no"?>
<!DOCTYPE svg PUBLIC "-//W3C//DTD SVG 20010904//EN"
 "http://www.w3.org/TR/2001/REC-SVG-20010904/DTD/svg10.dtd">
<svg version="1.0" xmlns="http://www.w3.org/2000/svg"
 width="512.000000pt" height="512.000000pt" viewBox="0 0 512.000000 512.000000"
 preserveAspectRatio="xMidYMid meet">

<g transform="translate(0.000000,512.000000) scale(0.100000,-0.100000)"
 stroke="none">
<path d="M1178 3942 l-1178 -1177 0 -1353 0 -1354 29 -29 29 -29 1354 0 1353
0 1177 1178 1178 1177 0 1353 0 1354 -29 29 -29 29 -414 0 -413 0 -660 -660
c-363 -363 -664 -660 -668 -660 -4 0 -7 77 -7 172 l0 172 170 171 170 171 0
290 c-1 211 -4 293 -13 305 -29 37 -47 39 -464 39 l-408 0 -1177 -1178z m712
-57 l-1065 -1065 -265 0 -265 0 1065 1065 1065 1065 265 0 265 0 -1065 -1065z
m1870 0 l-1065 -1065 -260 0 -260 0 1065 1065 1065 1065 260 0 260 0 -1065
-1065z m-1752 -392 l-1063 -1063 -3 132 -3 132 1063 1063 1063 1063 3 -132 3
-132 -1063 -1063z m1877 -2133 l-1065 -1065 0 1200 0 1200 1063 1063 1062
1062 3 -1197 2 -1198 -1065 -1065z m-1580 1830 l-425 -426 0 -290 c0 -290 0
-291 23 -312 12 -12 39 -25 60 -29 l37 -8 -660 -660 -660 -660 0 663 0 662 85
0 c52 0 99 6 118 14 19 8 411 393 937 920 l905 906 3 -177 2 -177 -425 -426z
m-1540 -715 l0 -170 -95 -3 c-111 -3 -137 -13 -151 -61 -7 -24 -9 -312 -7
-858 l3 -822 23 -23 23 -23 817 -3 c449 -2 832 0 850 3 17 3 41 16 52 27 20
21 20 36 20 865 l0 844 -25 24 c-22 23 -31 25 -125 25 l-100 0 0 175 0 175
298 -2 297 -3 0 -1235 0 -1235 -1237 -3 -1238 -2 0 1233 c0 679 3 1237 7 1240
4 4 137 6 297 5 l291 -3 0 -170z m1365 -1135 l0 -660 -662 0 -663 0 660 660
c363 363 661 660 662 660 2 0 3 -297 3 -660z"/>
</g>
</svg>
