<?xml version="1.0" standalone="no"?>
<!DOCTYPE svg PUBLIC "-//W3C//DTD SVG 20010904//EN"
 "http://www.w3.org/TR/2001/REC-SVG-20010904/DTD/svg10.dtd">
<svg version="1.0" xmlns="http://www.w3.org/2000/svg"
 width="512.000000pt" height="512.000000pt" viewBox="0 0 512.000000 512.000000"
 preserveAspectRatio="xMidYMid meet">

<g transform="translate(0.000000,512.000000) scale(0.100000,-0.100000)"
 stroke="none">
<path d="M1463 3657 l-1383 -1382 0 -1073 0 -1073 25 -24 24 -25 993 0 993 0
1462 1463 1463 1462 0 273 0 273 -25 24 -24 25 -456 0 -455 0 0 455 0 456 -25
24 -24 25 -271 0 -272 0 -64 -62 -64 -61 0 277 0 277 -25 24 -24 25 -233 0
-233 0 -1382 -1383z m342 -57 l-1280 -1280 -85 0 -85 0 1280 1280 1280 1280
85 0 85 0 -1280 -1280z m515 -205 l-880 -880 0 -480 0 -480 -400 -400 -400
-400 0 725 0 725 1278 1278 1277 1277 3 -242 2 -242 -880 -881z m565 85 l-920
-920 -125 0 -125 0 920 920 920 920 125 0 125 0 -920 -920z m115 -845 l-920
-920 0 365 0 365 918 918 917 917 3 -362 2 -363 -920 -920z m845 -115 l-920
-920 -365 0 -365 0 920 920 920 920 365 0 365 0 -920 -920z m118 -362 l-918
-918 -3 122 -3 122 918 918 918 918 3 -122 3 -122 -918 -918z m-2043 -213 l0
-456 25 -24 24 -25 456 0 455 0 0 -160 0 -160 -640 0 -640 0 0 640 0 640 160
0 160 0 0 -455z m-1440 -600 l0 -816 25 -24 24 -25 736 0 735 0 0 -120 0 -120
-880 0 -880 0 0 960 0 960 120 0 120 0 0 -815z m989 -366 c22 -18 45 -19 459
-19 l437 0 -160 -160 -160 -160 -645 0 -645 0 340 340 340 340 5 -161 c5 -154
6 -162 29 -180z m996 -319 l-300 -300 -3 82 -3 82 218 218 218 218 85 0 85 0
-300 -300z"/>
</g>
</svg>
