<?xml version="1.0" standalone="no"?>
<!DOCTYPE svg PUBLIC "-//W3C//DTD SVG 20010904//EN"
 "http://www.w3.org/TR/2001/REC-SVG-20010904/DTD/svg10.dtd">
<svg version="1.0" xmlns="http://www.w3.org/2000/svg"
 width="512.000000pt" height="512.000000pt" viewBox="0 0 512.000000 512.000000"
 preserveAspectRatio="xMidYMid meet">

<g transform="translate(0.000000,512.000000) scale(0.100000,-0.100000)"
 stroke="none">
<path d="M3831 5104 c-170 -29 -345 -103 -481 -204 -36 -27 -754 -739 -1596
-1582 -1397 -1399 -1536 -1540 -1582 -1617 -64 -105 -106 -206 -139 -330 -22
-82 -26 -119 -27 -251 -1 -164 7 -219 51 -355 55 -173 147 -317 286 -452 375
-363 937 -414 1382 -125 106 68 3123 3083 3200 3197 336 499 226 1153 -255
1514 -237 178 -547 254 -839 205z m409 -184 c334 -86 590 -342 681 -680 30
-112 33 -339 6 -440 -41 -147 -94 -259 -172 -359 -61 -79 -2568 -2580 -2561
-2556 14 49 26 227 20 300 -22 274 -131 513 -323 706 -191 190 -430 300 -701
323 -69 6 -234 -5 -298 -20 -19 -4 357 378 1233 1256 693 694 1285 1281 1315
1304 113 88 259 152 413 182 102 19 280 12 387 -16z m-2906 -2901 c385 -98
662 -414 708 -808 66 -566 -416 -1075 -982 -1037 -231 16 -426 99 -588 251
-404 377 -401 1000 6 1376 225 208 561 293 856 218z"/>
<path d="M3869 4751 c-60 -60 -23 -122 96 -161 288 -95 502 -315 604 -623 28
-82 59 -106 117 -87 62 21 70 75 28 192 -94 261 -289 485 -534 612 -90 47
-223 96 -260 96 -12 0 -35 -13 -51 -29z"/>
<path d="M3549 4430 c-29 -17 -43 -66 -29 -100 14 -34 37 -48 120 -75 144 -46
303 -153 410 -277 71 -81 154 -231 190 -341 30 -92 80 -122 138 -81 54 38 47
98 -30 269 -57 125 -127 225 -227 326 -96 95 -168 147 -287 207 -142 72 -243
97 -285 72z"/>
<path d="M3214 4086 c-21 -17 -28 -33 -28 -59 0 -49 24 -72 103 -98 102 -34
166 -65 246 -119 172 -116 301 -288 371 -494 30 -86 47 -106 91 -106 46 0 68
13 83 49 10 26 9 41 -10 103 -68 223 -242 458 -438 590 -117 79 -301 158 -368
158 -13 0 -35 -11 -50 -24z"/>
<path d="M2899 3765 c-32 -17 -52 -66 -40 -98 14 -35 41 -53 116 -77 278 -90
503 -315 595 -595 30 -89 67 -130 113 -121 36 7 77 47 77 76 0 35 -43 156 -85
240 -137 271 -370 473 -651 565 -88 29 -90 29 -125 10z"/>
<path d="M2552 3417 c-28 -30 -30 -89 -3 -116 10 -10 49 -29 87 -41 200 -66
378 -199 492 -367 53 -78 77 -128 113 -231 17 -48 40 -95 51 -104 43 -38 119
-11 134 47 13 54 -64 244 -156 381 -62 92 -199 233 -285 291 -123 83 -308 163
-378 163 -22 0 -41 -8 -55 -23z"/>
<path d="M2225 3085 c-29 -28 -33 -79 -10 -112 8 -12 39 -29 68 -38 162 -53
299 -136 409 -247 110 -112 174 -219 227 -379 26 -79 49 -103 98 -103 26 0 42
7 59 28 30 34 30 59 -1 152 -110 328 -380 593 -717 704 -80 26 -104 25 -133
-5z"/>
<path d="M1930 2773 c-33 -12 -60 -47 -60 -79 0 -48 34 -79 115 -104 283 -91
507 -317 604 -612 33 -99 76 -127 141 -93 56 29 51 97 -21 257 -109 242 -292
434 -524 550 -107 54 -225 91 -255 81z"/>
<path d="M1565 2415 c-56 -55 -21 -122 83 -156 294 -97 515 -317 612 -613 28
-85 48 -106 99 -106 46 0 81 35 81 80 0 65 -83 257 -163 374 -53 79 -166 196
-246 257 -118 88 -338 189 -413 189 -17 0 -39 -10 -53 -25z"/>
<path d="M1018 1870 c-311 -38 -569 -263 -649 -567 -33 -121 -30 -291 5 -408
38 -128 96 -225 191 -321 200 -203 469 -276 745 -203 251 67 452 261 533 514
90 282 -11 621 -241 811 -163 134 -381 199 -584 174z m252 -186 c283 -80 471
-365 430 -653 -33 -230 -187 -416 -405 -488 -64 -21 -101 -26 -180 -27 -160
-1 -293 49 -409 155 -248 227 -255 620 -16 859 64 64 160 123 244 150 99 32
230 33 336 4z"/>
</g>
</svg>
