<?xml version="1.0" standalone="no"?>
<!DOCTYPE svg PUBLIC "-//W3C//DTD SVG 20010904//EN"
 "http://www.w3.org/TR/2001/REC-SVG-20010904/DTD/svg10.dtd">
<svg version="1.0" xmlns="http://www.w3.org/2000/svg"
 width="512.000000pt" height="512.000000pt" viewBox="0 0 512.000000 512.000000"
 preserveAspectRatio="xMidYMid meet">

<g transform="translate(0.000000,512.000000) scale(0.100000,-0.100000)"
 stroke="none">
<path d="M3595 5103 c-84 -17 -211 -76 -282 -129 -140 -106 -2105 -1729 -2149
-1775 -145 -155 -234 -355 -256 -574 -10 -93 -9 -129 6 -230 l17 -120 -78 -75
c-43 -42 -201 -192 -352 -335 -150 -143 -293 -288 -317 -322 -134 -186 -203
-454 -175 -681 74 -601 663 -989 1246 -820 88 25 209 85 289 142 119 85 265
259 312 371 8 19 16 35 19 35 3 0 17 -24 31 -52 188 -371 602 -588 1007 -527
155 23 306 83 432 173 87 63 212 199 267 292 232 396 1191 2051 1199 2071 12
33 -13 81 -48 89 -61 16 -51 32 -542 -812 l-466 -802 -17 102 c-22 130 -66
252 -130 357 -68 113 -224 267 -335 333 -155 91 -357 142 -534 134 -43 -2 -78
0 -77 4 3 5 1059 1273 1448 1736 118 141 132 150 260 159 151 11 308 -53 431
-176 110 -110 168 -246 169 -393 0 -69 -25 -186 -54 -252 -31 -71 -32 -86 -6
-114 49 -52 105 -34 140 45 81 182 88 410 19 585 -97 246 -328 417 -609 449
-52 6 -96 12 -97 14 -2 1 10 26 26 56 58 107 76 189 75 339 0 118 -4 145 -27
215 -118 355 -481 565 -842 488z m336 -165 c96 -35 156 -73 224 -142 175 -178
215 -454 97 -669 -24 -44 -275 -354 -717 -885 l-680 -818 -6 131 c-10 207 -55
355 -158 511 -186 283 -511 454 -838 442 -51 -1 -93 -2 -93 -2 0 1 44 37 98
81 53 43 414 339 802 658 388 318 726 594 751 612 59 42 163 89 225 102 80 16
219 6 295 -21z m-1857 -1603 c149 -40 254 -98 362 -198 269 -250 340 -635 177
-962 -104 -209 -301 -372 -530 -437 -110 -32 -305 -32 -415 0 -107 30 -176 63
-264 123 -177 123 -301 318 -339 534 -19 110 -19 170 0 280 61 347 327 610
683 675 68 13 258 4 326 -15z m-1074 -1223 c0 -8 46 -88 83 -142 l17 -26 -93
4 c-50 2 -118 -1 -149 -6 -32 -5 -58 -8 -58 -6 0 6 185 183 193 184 4 0 7 -4
7 -8z m174 -337 c149 -40 254 -98 362 -198 352 -327 352 -877 0 -1204 -229
-212 -535 -276 -834 -174 -435 150 -663 650 -492 1078 108 269 362 470 655
516 58 10 250 -2 309 -18z m1800 0 c149 -40 254 -98 362 -198 352 -327 352
-877 0 -1204 -146 -136 -312 -207 -511 -220 -269 -17 -537 106 -702 322 -297
391 -195 940 225 1202 77 48 202 96 292 112 76 14 263 6 334 -14z m-982 -220
c-3 -5 -18 -28 -32 -50 -15 -22 -40 -64 -55 -94 l-27 -54 -35 64 c-20 35 -48
82 -63 104 l-28 40 123 0 c79 0 121 -4 117 -10z"/>
<path d="M1758 3250 c-107 -18 -279 -94 -299 -132 -23 -44 16 -108 67 -108 12
0 51 15 87 34 284 148 639 31 776 -256 84 -176 83 -330 -1 -507 -75 -156 -217
-267 -395 -307 -281 -62 -572 108 -664 388 -33 101 -33 241 0 350 22 73 23 79
7 102 -23 36 -80 45 -110 17 -45 -42 -83 -226 -72 -348 9 -102 30 -176 76
-268 75 -152 187 -261 345 -336 391 -184 853 20 992 436 24 71 27 95 27 220 0
125 -3 149 -27 220 -114 343 -459 554 -809 495z"/>
<path d="M825 1683 c-147 -31 -312 -131 -406 -247 -59 -73 -122 -196 -146
-286 -23 -87 -23 -263 0 -350 98 -374 472 -611 845 -534 259 53 465 236 549
489 24 71 27 95 27 220 0 125 -3 149 -27 220 -118 355 -481 565 -842 488z
m289 -153 c169 -43 302 -150 374 -301 46 -96 62 -162 62 -254 0 -92 -16 -158
-62 -254 -143 -301 -536 -413 -814 -233 -337 219 -366 678 -58 932 139 115
322 155 498 110z"/>
<path d="M2625 1683 c-211 -45 -399 -192 -496 -388 -56 -114 -73 -190 -73
-320 0 -131 17 -206 74 -320 75 -152 187 -261 345 -336 391 -184 853 20 992
436 24 71 27 95 27 220 0 125 -3 149 -27 220 -118 355 -481 566 -842 488z
m289 -153 c169 -43 302 -150 374 -301 46 -96 62 -162 62 -254 0 -92 -16 -158
-62 -254 -143 -301 -536 -413 -814 -233 -337 219 -366 678 -58 932 139 115
322 155 498 110z"/>
</g>
</svg>
