<?xml version="1.0" standalone="no"?>
<!DOCTYPE svg PUBLIC "-//W3C//DTD SVG 20010904//EN"
 "http://www.w3.org/TR/2001/REC-SVG-20010904/DTD/svg10.dtd">
<svg version="1.0" xmlns="http://www.w3.org/2000/svg"
 width="512.000000pt" height="512.000000pt" viewBox="0 0 512.000000 512.000000"
 preserveAspectRatio="xMidYMid meet">

<g transform="translate(0.000000,512.000000) scale(0.100000,-0.100000)"
 stroke="none">
<path d="M1146 5105 c-84 -30 -146 -124 -146 -222 l0 -43 -100 0 c-142 0 -202
-30 -253 -125 -20 -37 -22 -57 -25 -286 -2 -145 1 -268 7 -302 12 -67 45 -119
98 -155 35 -25 47 -27 156 -30 l117 -4 0 -159 0 -159 -100 0 c-142 0 -202 -29
-253 -125 -21 -38 -22 -52 -22 -325 0 -273 1 -287 22 -325 51 -96 111 -125
253 -125 l100 0 0 -160 0 -160 -102 0 c-78 0 -113 -5 -144 -19 -50 -23 -111
-93 -121 -140 -5 -20 -8 -157 -8 -306 0 -258 1 -272 22 -310 51 -96 111 -125
253 -125 l100 0 0 -159 0 -159 -117 -4 c-109 -3 -121 -5 -156 -30 -53 -36 -86
-88 -98 -155 -6 -34 -9 -157 -7 -302 3 -229 5 -249 25 -286 51 -95 111 -125
253 -125 l100 0 0 -43 c0 -181 180 -291 341 -210 78 40 112 93 117 183 l4 70
173 0 c157 0 175 2 197 20 50 39 37 118 -22 139 -19 6 -99 11 -192 11 l-158 0
2 282 3 283 1095 0 1095 0 3 -282 2 -283 -816 -2 -816 -3 -24 -28 c-32 -37
-31 -77 2 -111 l27 -26 812 0 813 0 4 -70 c5 -90 39 -143 117 -182 93 -47 193
-35 266 33 49 45 75 107 75 176 l0 43 100 0 c142 0 202 30 253 125 20 37 22
57 25 286 2 145 -1 268 -7 302 -12 67 -45 119 -98 155 -35 25 -47 27 -155 30
l-118 4 0 159 0 159 100 0 c142 0 202 29 253 125 21 38 22 52 22 310 0 149 -3
286 -8 306 -10 47 -71 117 -121 140 -31 14 -66 19 -143 19 l-103 0 0 160 0
160 100 0 c142 0 202 29 253 125 21 38 22 52 22 325 0 273 -1 287 -22 325 -51
96 -111 125 -253 125 l-100 0 0 159 0 159 118 4 c108 3 120 5 155 30 53 36 86
88 98 155 6 34 9 157 7 302 -3 229 -5 249 -25 286 -51 95 -111 125 -253 125
l-100 0 0 43 c0 181 -180 291 -341 210 -78 -40 -112 -93 -117 -183 l-4 -70
-150 0 c-145 0 -150 -1 -173 -25 -28 -27 -33 -79 -11 -107 22 -30 64 -38 202
-38 l134 0 -2 -282 -3 -283 -1095 0 -1095 0 -3 282 -2 283 831 2 831 3 24 28
c32 37 31 77 -2 111 l-27 26 -827 0 -828 0 -4 70 c-3 57 -9 77 -33 112 -58 83
-178 119 -279 83z m132 -167 c17 -17 17 -4739 0 -4756 -17 -17 -74 -15 -92 4
-14 14 -16 243 -16 2374 0 2131 2 2360 16 2374 18 19 75 21 92 4z m2656 -4
c14 -14 16 -243 16 -2374 0 -2131 -2 -2360 -16 -2374 -18 -19 -75 -21 -92 -4
-17 17 -17 4739 0 4756 17 17 74 15 92 -4z m-2934 -550 l0 -286 -90 4 c-55 2
-94 8 -102 16 -10 10 -14 74 -16 258 -4 308 -9 294 118 294 l90 0 0 -286z
m3315 262 c14 -21 16 -60 13 -270 -2 -184 -6 -248 -16 -258 -8 -8 -47 -14
-102 -16 l-90 -4 0 286 0 286 90 0 c84 0 91 -2 105 -24z m-657 -868 l3 -158
-1101 0 -1100 0 0 153 c0 85 3 157 7 160 3 4 497 6 1097 5 l1091 -3 3 -157z
m-2658 -608 l0 -280 -87 0 c-49 0 -95 5 -103 10 -13 8 -15 50 -18 256 -4 308
-9 294 118 294 l90 0 0 -280z m2660 0 l0 -280 -816 -2 -816 -3 -24 -28 c-29
-34 -31 -76 -5 -108 l19 -24 819 -5 818 -5 0 -155 0 -155 -153 -5 c-147 -5
-155 -6 -173 -29 -27 -34 -25 -82 7 -112 24 -23 33 -24 175 -27 l149 -4 0
-279 0 -279 -1100 0 -1100 0 0 280 0 280 831 2 831 3 24 28 c29 34 31 76 5
108 l-19 24 -834 5 -833 5 0 155 0 155 174 3 c149 2 178 5 194 20 31 28 39 59
23 97 -20 46 -57 55 -243 55 l-153 0 0 280 0 280 1100 0 1100 0 0 -280z m655
256 c23 -35 18 -512 -5 -526 -8 -5 -54 -10 -102 -10 l-88 0 0 280 0 280 90 0
c84 0 91 -2 105 -24z m-3315 -1476 l0 -280 -90 0 c-127 0 -122 -14 -118 294 3
206 5 248 18 256 8 5 54 10 103 10 l87 0 0 -280z m3310 270 c13 -8 15 -50 18
-256 4 -308 9 -294 -118 -294 l-90 0 0 280 0 280 88 0 c48 0 94 -5 102 -10z
m-652 -877 l-3 -158 -1095 0 -1095 0 -3 158 -3 157 1101 0 1101 0 -3 -157z
m-2658 -608 l0 -285 -89 0 c-126 0 -121 -13 -121 277 0 127 4 243 9 257 12 30
25 33 124 35 l77 1 0 -285z m3312 267 c10 -10 14 -74 16 -258 4 -308 9 -294
-118 -294 l-90 0 0 286 0 286 90 -4 c55 -2 94 -8 102 -16z"/>
</g>
</svg>
