<?xml version="1.0" standalone="no"?>
<!DOCTYPE svg PUBLIC "-//W3C//DTD SVG 20010904//EN"
 "http://www.w3.org/TR/2001/REC-SVG-20010904/DTD/svg10.dtd">
<svg version="1.0" xmlns="http://www.w3.org/2000/svg"
 width="512.000000pt" height="512.000000pt" viewBox="0 0 512.000000 512.000000"
 preserveAspectRatio="xMidYMid meet">

<g transform="translate(0.000000,512.000000) scale(0.100000,-0.100000)"
 stroke="none">
<path d="M3581 5029 c-98 -19 -161 -60 -313 -205 -403 -384 -3086 -3009 -3106
-3039 -41 -59 -73 -154 -79 -229 -24 -321 282 -581 590 -501 116 30 151 56
373 277 187 186 213 208 219 189 10 -32 117 -144 159 -166 l36 -19 -249 -251
c-262 -263 -285 -294 -316 -412 -89 -341 238 -667 580 -578 135 36 58 -38
1826 1733 1275 1276 1661 1669 1682 1708 71 135 74 296 9 433 -30 63 -125 168
-176 196 l-34 19 45 50 c111 124 154 276 122 427 -47 218 -246 380 -467 379
-67 0 -167 -26 -225 -58 -27 -14 -79 -54 -115 -87 l-65 -61 -54 57 c-113 119
-278 170 -442 138z m196 -165 c64 -22 127 -67 158 -112 l25 -37 -1339 -1340
c-1086 -1087 -1344 -1350 -1365 -1392 -34 -68 -56 -154 -56 -218 0 -50 -1 -52
-79 -129 l-80 -79 -6 29 c-25 120 -56 182 -131 263 -62 67 -163 125 -247 140
-26 5 -49 10 -51 12 -6 8 2890 2822 2919 2837 84 43 174 52 252 26z m834 -11
c66 -29 124 -86 156 -151 24 -48 28 -70 28 -137 0 -67 -4 -89 -27 -135 -23
-46 -235 -263 -1317 -1344 -1239 -1239 -1290 -1289 -1296 -1260 -25 119 -56
182 -129 262 -73 78 -154 121 -280 147 -29 6 21 57 1255 1291 706 707 1299
1294 1317 1306 83 51 204 60 293 21z m136 -834 c124 -86 167 -255 99 -392 -21
-42 -302 -329 -1515 -1541 -1430 -1430 -1490 -1489 -1496 -1460 -25 119 -56
182 -129 262 -73 78 -154 121 -280 147 -29 6 -29 7 88 124 l118 118 76 6 c86
6 167 33 233 77 24 16 645 630 1379 1365 1181 1182 1338 1335 1359 1330 13 -4
44 -20 68 -36z m-2916 -1980 c67 -36 98 -68 137 -143 22 -43 26 -64 26 -136 1
-78 -2 -90 -33 -148 -38 -70 -70 -100 -145 -140 -43 -22 -64 -26 -136 -26 -72
0 -93 4 -136 26 -75 40 -107 70 -145 140 -31 58 -34 70 -33 148 0 100 24 160
89 225 100 100 249 121 376 54z m-1120 -240 c67 -36 98 -68 137 -143 22 -43
26 -64 26 -136 1 -78 -2 -90 -33 -148 -38 -70 -70 -100 -145 -140 -43 -22 -64
-26 -136 -26 -72 0 -93 4 -136 26 -75 40 -107 70 -145 140 -31 58 -34 70 -33
148 0 100 24 160 89 225 100 100 249 121 376 54z m800 -960 c67 -36 98 -68
137 -143 22 -43 26 -64 26 -136 1 -78 -2 -90 -33 -148 -38 -70 -70 -100 -145
-140 -43 -22 -64 -26 -136 -26 -72 0 -93 4 -136 26 -75 40 -107 70 -145 140
-31 58 -34 70 -33 148 0 100 24 160 89 225 100 100 249 121 376 54z"/>
</g>
</svg>
