<?xml version="1.0" standalone="no"?>
<!DOCTYPE svg PUBLIC "-//W3C//DTD SVG 20010904//EN"
 "http://www.w3.org/TR/2001/REC-SVG-20010904/DTD/svg10.dtd">
<svg version="1.0" xmlns="http://www.w3.org/2000/svg"
 width="512.000000pt" height="512.000000pt" viewBox="0 0 512.000000 512.000000"
 preserveAspectRatio="xMidYMid meet">

<g transform="translate(0.000000,512.000000) scale(0.100000,-0.100000)"
stroke="none">
<path d="M3100 3878 c-85 -49 -158 -95 -162 -102 -15 -22 -8 -46 17 -62 25
-16 28 -15 175 70 l149 86 233 -136 c128 -74 237 -139 241 -143 4 -5 -497
-302 -1115 -661 -618 -359 -1134 -662 -1147 -674 -132 -119 -136 -390 -8 -650
29 -58 52 -106 51 -106 -4 0 -1130 673 -1137 680 -4 4 207 132 470 285 263
153 703 410 978 570 275 160 525 305 556 323 78 44 95 65 81 97 -8 18 -19 25
-39 25 -32 0 -2180 -1247 -2195 -1274 -5 -9 -7 -25 -3 -35 6 -19 1553 -949
1650 -992 74 -33 187 -38 250 -10 48 21 110 57 1165 671 327 190 782 454 1010
585 455 264 491 290 530 391 32 80 32 242 1 359 -80 302 -337 582 -572 626
-92 17 -138 3 -284 -83 -66 -39 -125 -71 -130 -71 -6 0 -135 72 -288 161 -153
89 -288 162 -300 162 -12 -1 -92 -42 -177 -92z m1267 -209 c229 -116 424 -452
411 -708 -5 -92 -25 -146 -70 -188 -13 -12 -543 -324 -1178 -694 -635 -369
-1169 -679 -1186 -690 l-31 -19 5 93 c16 314 -208 692 -487 819 -57 27 -63 31
-45 41 22 12 1747 1015 2074 1206 319 186 314 184 384 178 39 -4 80 -16 123
-38z m-2561 -1483 c184 -93 350 -325 405 -565 15 -69 12 -196 -6 -251 -22 -65
-77 -115 -137 -124 -177 -27 -443 217 -539 496 -50 148 -59 280 -23 368 48
114 164 144 300 76z"/>
<path d="M1685 1967 c-46 -46 -61 -104 -46 -186 35 -188 201 -346 329 -311
146 39 139 278 -12 439 -66 69 -110 91 -182 91 -50 0 -59 -3 -89 -33z m156
-86 c53 -33 103 -104 124 -175 20 -66 19 -99 -3 -126 -27 -33 -74 -19 -131 39
-81 81 -123 210 -87 266 21 32 42 32 97 -4z"/>
<path d="M2693 3642 c-103 -61 -113 -69 -113 -96 0 -27 18 -46 44 -46 19 0
164 79 199 108 33 29 15 82 -27 82 -12 0 -58 -22 -103 -48z"/>
</g>
</svg>
